
        <svg xmlns="http://www.w3.org/2000/svg" xmlns:xlink="http://www.w3.org/1999/xlink" version="1.1" width="3182.9268292682927" 
        height="921.8098765368379" viewBox="0 0 3182.9268292682927 921.8098765368379">
			
			<g transform="scale(9.146341463414634) translate(10, 10)">
				<defs id="SvgjsDefs5825"><linearGradient id="SvgjsLinearGradient5830"><stop id="SvgjsStop5831" stop-color="#6d7cff" offset="0"></stop><stop id="SvgjsStop5832" stop-color="#ff51ff" offset="1"></stop></linearGradient></defs><g id="SvgjsG5826" featureKey="symbolFeature-0" transform="matrix(1.3091107937388908,0,0,1.3091107937388908,-6.544532724045255,-28.455317460113786)" fill="url(#SvgjsLinearGradient5830)"><g xmlns="http://www.w3.org/2000/svg"><path fill="none" d="M28.746,33.685c-2.565-0.832-5.135-1.591-7.831-1.835c-2.642-0.239-12.922-0.713-13.113,3.343   c-0.174,3.695,8.386,4.762,10.929,4.657c5.358-0.223,10.779-1.708,16.03-2.724C34.899,34.81,30.819,34.358,28.746,33.685z"></path><path fill="none" d="M29.905,55.938c-2.358-0.497-6.761-1.996-8.47,0.662c-1.909,2.971,3.57,3.506,5.702,3.869   c3.79,0.646,7.653,0.397,11.31-0.813C38.791,57.465,31.974,56.374,29.905,55.938z"></path><path fill="none" d="M83.959,48.088c-5.48,0.476-10.882,2.366-16.192,3.724c-0.037,1.54-0.238,1.229,0.732,2.012   c0.836,0.675,2.777,0.81,3.872,1.127c2.56,0.741,5.151,1.526,7.8,1.882c3.485,0.467,11.3,0.936,12.548-3.672   C93.966,48.555,86.891,47.833,83.959,48.088z"></path><path d="M91.942,46.867c-4.25-2.938-11.38-1.951-16.074-0.924c-3.198,0.699-6.345,1.607-9.507,2.446   c-3.43,0.91-4.649,1.375-7.693-0.613c-4.914-3.209-9.782-6.488-14.665-9.743c8.687-3.011,17.37-5.904,26.184-8.531   c4.239-1.263,8.803-3.173,13.198-3.689c2.876-0.338,3.059,0.896,4.509,3.082c0.947,1.427,4.062,4.198,4.921,0.75   c0.501-2.009-2.198-4.033-3.593-5.043c-5.84-4.226-13.175-1.098-19.38,0.881c-7.972,2.542-15.887,5.263-23.823,7.914   c-1.751,0.585-4.457,2.003-6.319,1.653c-1.478-0.277-3.029-1.572-4.456-2.193c-3.58-1.557-7.429-2.338-11.247-3.058   c-3.849-0.725-7.618-1.317-11.524-0.589c-2.51,0.467-6.966,1.312-7.413,4.307c-0.802,5.377,6.522,8.723,10.784,8.856   c3.921,0.123,8.082-0.738,11.967-1.245c3.327-0.434,7.54-1.721,10.889-1.385c3.106,0.313,6.054,3.491,8.541,5.308   c3.23,2.361,6.448,4.739,9.673,7.107c-3.054,1.371-6.095,2.771-9.161,4.115c-3.08,1.35-4.23,1.728-7.271,0.34   c-5.659-2.582-11.665-4.976-18.066-3.758c-5.646,1.074-3.791,6.319-0.08,8.475c2.425,1.409,3.416,1.391,6.048,1.691   c2.575,0.294,4.916,2.048,7.597,2.397c3.274,0.426,5.533-1.138,8.567-1.278c2.654-0.123,4.955,2.201,6.987,3.666   c4.894,3.528,9.633,7.027,15.557,8.618c2.62,0.704,9.328,2.647,9.961-1.482c0.288-1.878-0.997-4.316-2.648-5.094   c-0.836-0.394-1.898-0.585-2.794-0.249c-1.919,0.72-1.343,1.014-0.774,2.88c-5.836,0-11.207-3.283-15.86-6.579   c-1.001-0.709-4.983-2.802-4.603-4.383c0.357-1.485,5.74-3.115,6.955-3.694c3.254-1.55,4.785-2.308,8.313-1.342   c3.167,0.867,6.298,1.872,9.458,2.765c5.418,1.531,11.655,2.306,16.77-0.86C96.097,55.772,95.966,49.648,91.942,46.867z    M18.731,39.85c-2.544,0.106-11.104-0.962-10.929-4.657c0.191-4.057,10.471-3.583,13.113-3.343   c2.696,0.244,5.267,1.003,7.831,1.835c2.073,0.673,6.153,1.125,6.016,3.441C29.51,38.142,24.089,39.628,18.731,39.85z    M27.137,60.47c-2.132-0.364-7.611-0.898-5.702-3.869c1.709-2.659,6.112-1.159,8.47-0.662c2.068,0.436,8.885,1.527,8.542,3.719   C34.79,60.867,30.928,61.116,27.137,60.47z M92.719,53.161c-1.247,4.608-9.062,4.14-12.548,3.672c-2.65-0.355-5.24-1.141-7.8-1.882   c-1.095-0.317-3.036-0.452-3.872-1.127c-0.97-0.783-0.77-0.472-0.732-2.012c5.31-1.358,10.711-3.247,16.192-3.724   C86.891,47.833,93.966,48.555,92.719,53.161z"></path></g></g><g id="SvgjsG5827" featureKey="nameFeature-0" transform="matrix(1.6677239634936265,0,0,1.6677239634936265,146.66219286855355,-24.682314977798775)" fill="#ffffff"><path d="M6.8 40.36 c-0.96 -0.4 -1.92 -1.96 -1.92 -3.68 c0 -2.12 0.76 -6.88 4.64 -12.52 c3.64 -5.32 8 -9.36 12.56 -9.36 c6.04 0 2.36 12.44 -1.56 22.36 c1.08 -0.16 1.88 -0.36 2.4 -0.68 c0.68 -0.4 0.8 0.08 0.32 0.44 c-0.64 0.48 -1.6 0.84 -3.08 1.12 l-0.28 0.72 c-3.88 9.52 -11.24 24.48 -18.8 24.48 c-6 0 -9.96 -7.92 -1.08 -16.52 c5.92 -5.72 15.36 -8.64 19.4 -9.36 c6.36 -14.88 5.92 -21.6 2.56 -21.6 c-3.24 0 -8.52 4.68 -11.36 8.88 c-3.24 4.8 -5 9.8 -5 12.16 c0 1.84 1 2.68 1.64 3.04 c0.64 0.44 0.16 0.8 -0.44 0.52 z M0.96 62.519999999999996 c5.28 0 11.28 -8.84 18.04 -24.28 c-5.04 0.96 -12.8 3.76 -18.32 9.08 c-7.36 7.16 -4.36 15.2 0.28 15.2 z M47.431 36.52 c-0.92 0.64 -1.88 1.2 -2.84 1.68 c-0.76 2.64 -1.72 5 -2.6 7 c-1.68 3.72 -5.68 10 -10.04 10 c-2.48 0 -5.24 -1.76 -5.24 -7.16 c0 -3.88 1.64 -8.28 3.96 -11.96 c-0.6 -1.16 -0.88 -2.56 -0.88 -3.96 c0 -8.6 7.12 -17.28 12.32 -17.28 c3.16 0 4.52 3.56 4.52 9.24 c0 5.04 -0.76 9.44 -1.8 13.2 c0.8 -0.36 1.6 -0.8 2.32 -1.28 c1.24 -0.8 1.12 -0.04 0.28 0.52 z M36.431 38.92 c2.4 0.28 4.84 -0.2 7.12 -1.08 c1.16 -4.04 2.12 -9 2.12 -14.16 c0 -6.44 -1.64 -8 -3.56 -8 c-4.92 0 -11.32 9.24 -11.32 16.4 c0 1.12 0.16 2.16 0.48 3.04 c1.52 -2.24 3.28 -4.12 5 -5.4 c0.84 -0.64 1.52 -0.44 0.72 0.32 c-2.16 2.08 -3.88 4.12 -5.24 6.08 c0.92 1.56 2.44 2.56 4.68 2.8 z M41.111000000000004 44.68 c0.64 -1.48 1.44 -3.52 2.16 -5.92 c-2.16 0.84 -4.44 1.16 -6.76 0.96 c-2.52 -0.2 -4.24 -1.28 -5.32 -2.76 c-2.52 4 -3.52 7.8 -3.52 11.2 c0 4.2 1.72 6.24 4.04 6.24 c4.16 0 7.68 -5.8 9.4 -9.72 z M63.862 18.84 c-1.08 3.2 -3.84 14.76 -5 19.72 c1.4 -3.04 3.64 -7.24 5.44 -10.12 c4.12 -6.4 6.64 -8.84 9.28 -8.84 c1.28 0 2.96 1.08 2.96 3.32 c0 2.28 -1.44 4 -3.8 5.88 c-3.68 2.88 -4.72 3.2 -4.72 3.84 c0 0.4 0.6 0.64 2.6 0.76 c2.44 0.12 4.56 0.84 5.88 2.56 c1.04 -0.24 1.84 -0.36 2.44 -0.48 c2.04 -0.36 2.32 0.08 1.56 0.2 c-0.28 0.04 -1.6 0.36 -3.56 0.96 c0.28 0.48 0.52 1.04 0.68 1.64 c1.04 3.8 -0.92 10.44 -11 14.92 c-7.84 3.48 -15.16 2.56 -15.4 -0.48 c-0.12 -1.8 1.6 -4.56 5.32 -7.48 c0.36 -1.72 0.84 -3.88 1.52 -6.6 c2.2 -9.24 4.56 -18.72 4.84 -19.6 c0.24 -0.84 1.2 -0.92 0.96 -0.2 z M55.622 50.88 c-0.08 -0.24 0.04 -1.36 0.64 -4.44 c-3 2.52 -4.52 4.88 -4.24 6.32 c0.44 2.24 8.2 2.2 14.16 -0.36 c7.88 -3.32 11.8 -9.6 10.6 -14.08 c-0.16 -0.48 -0.32 -0.96 -0.6 -1.4 c-3.08 0.96 -7.44 2.52 -12 4.64 c-2.64 1.24 -4.88 2.6 -6.72 3.96 c-0.8 3.32 -1 5 -1.16 5.24 c-0.2 0.32 -0.6 0.48 -0.68 0.12 z M58.382000000000005 42.04 l-0.64 2.28 c1.6 -1.12 3.44 -2.24 5.64 -3.32 c5.52 -2.72 9.56 -4.08 12.28 -4.8 c-1.04 -1.2 -2.76 -2.04 -5.52 -2.2 c-2.4 -0.12 -2.88 -0.52 -3 -1.24 c-0.08 -0.92 1.72 -1.84 5.12 -4.76 c2.52 -2.16 3.36 -3.8 3.36 -5.32 c0 -1.16 -0.8 -2.2 -2.08 -2.2 c-2.52 -0.04 -5.44 3.08 -8.56 8.12 c-1.88 2.96 -5.04 7.8 -6.6 13.44 z M104.253 23.96 c0.68 -0.24 1.8 -0.84 2.08 -2.12 c0.32 -1.52 -0.4 -2.56 -2.24 -2.88 c-2.04 -0.36 -6.2 0.36 -10.12 2.2 c-3.36 1.6 -6.88 4.04 -7.52 6.8 c-0.6 2.76 0.76 4.92 4.72 8.6 c1.16 1.08 2.16 2.04 3 2.92 c4.36 -1.76 12.72 -4.12 13.68 -4.32 c1.04 -0.24 1.24 0.24 0.16 0.44 c-0.92 0.2 -8.84 2.48 -13.32 4.4 c3.08 3.24 4.12 5.32 3.72 7.88 c-0.48 3.2 -4.44 5 -8.56 4.6 c-3.96 -0.36 -5.8 -2.68 -5.44 -4.8 c0.52 -2.8 4.12 -5.36 8.04 -7.4 c0.24 -0.16 0.6 -0.28 0.92 -0.44 c-0.76 -0.8 -1.72 -1.72 -2.76 -2.76 c-4.4 -4.16 -5.92 -6.32 -5.28 -9.28 s3.08 -5.2 8.16 -7.44 c5.12 -2.28 8.6 -2.52 10.76 -2.16 c2.36 0.4 3.24 1.96 2.84 3.84 c-0.4 1.68 -2.12 2.52 -2.6 2.56 c-0.48 0.08 -0.72 -0.44 -0.24 -0.64 z M97.493 47.68 c0.32 -2 -0.4 -3.84 -3.6 -7.32 c-0.36 0.16 -0.64 0.32 -0.92 0.48 c-4.92 2.68 -7.32 4.68 -7.72 6.84 c-0.32 1.84 1.36 3.64 4.64 3.88 c4 0.24 7.2 -1.64 7.6 -3.88 z"></path></g>
			</g>
		</svg>
	